# xmcd
#
# Track frame offsets: 
#        150
#        11382
#        26913
#        39460
#        55400
#        70147
#        86204
#        100569
#        116904
#        134238
#        147371
#        158563
#
# Disc length: 2300 seconds
#
# Revision: 0
# Processed by: cddbd v1.5.2PL0 Copyright (c) Steve Scherf et al.
# Submitted via: ExactAudioCopyFreeDBPlugin 1.0
#
DISCID=a808fa0c
DTITLE=Breaking Grass - Running With the Moon
DYEAR=2012
DGENRE=Country
TTITLE0=Amongst the Stones
TTITLE1=Running With the Moon
TTITLE2=Strings
TTITLE3=Witches Of Harlan
TTITLE4=Carry On Carolina
TTITLE5=Before I Could Lie
TTITLE6=Oh How I Love You
TTITLE7=Can't Look Down
TTITLE8=Still The Roses Bloom
TTITLE9=Good Love
TTITLE10=I'm Not Crying Cause You're Leaving
TTITLE11=Rambling Girl
EXTD=
EXTT0=
EXTT1=
EXTT2=
EXTT3=
EXTT4=
EXTT5=
EXTT6=
EXTT7=
EXTT8=
EXTT9=
EXTT10=
EXTT11=
PLAYORDER=
